<?xml version="1.0" encoding="UTF-8" standalone="no"?>
<!-- Created with Inkscape (http://www.inkscape.org/) -->

<svg
   width="210mm"
   height="297mm"
   viewBox="0 0 210 297"
   version="1.1"
   id="svg5"
   inkscape:version="1.1.2 (0a00cf5339, 2022-02-04)"
   sodipodi:docname="E.svg"
   xmlns:inkscape="http://www.inkscape.org/namespaces/inkscape"
   xmlns:sodipodi="http://sodipodi.sourceforge.net/DTD/sodipodi-0.dtd"
   xmlns="http://www.w3.org/2000/svg"
   xmlns:svg="http://www.w3.org/2000/svg">
  <sodipodi:namedview
     id="namedview7"
     pagecolor="#ffffff"
     bordercolor="#666666"
     borderopacity="1.0"
     inkscape:pageshadow="2"
     inkscape:pageopacity="0.0"
     inkscape:pagecheckerboard="0"
     inkscape:document-units="mm"
     showgrid="false"
     inkscape:zoom="0.58974467"
     inkscape:cx="397.62971"
     inkscape:cy="556.1729"
     inkscape:window-width="1600"
     inkscape:window-height="839"
     inkscape:window-x="0"
     inkscape:window-y="29"
     inkscape:window-maximized="1"
     inkscape:current-layer="layer1" />
  <defs
     id="defs2" />
  <g
     inkscape:label="Calque 1"
     inkscape:groupmode="layer"
     id="layer1">
    <path
       style="fill:#de8787;stroke:#000000;stroke-width:0.264583px;stroke-linecap:butt;stroke-linejoin:miter;stroke-opacity:1"
       d="M 72.650786,83.024339 C 59.286674,100.46258 45.390662,100.94383 45.390662,100.94383 c 0,0 12.99187,10.70608 8.21659,24.91283 -4.775279,14.20675 -1.491461,22.70035 1.3866,22.31105 2.878058,-0.38931 24.949779,-51.337231 45.613058,-23.70953 20.66329,27.6277 10.08256,4.52924 10.08256,4.52924 0,0 -7.422,-17.43191 -16.650959,-18.82696 -9.228962,-1.39505 -26.298016,6.26702 -26.298016,6.26702 0,0 -5.782694,-7.92497 -2.835918,-8.27754 2.946778,-0.35256 -2.668471,-5.26187 13.666695,-3.20436 16.335165,2.0575 26.478128,2.90636 26.478128,2.90636 l -2.99596,-6.16259 c 0,0 -41.175414,1.35223 -31.435009,-2.777089 9.740405,-4.129321 23.127412,-25.593127 23.127412,-25.593127 0,0 3.111539,-10.034143 -7.141718,-9.001808 -10.253261,1.032333 -10.908832,6.540923 -10.908832,6.540923 0,0 10.996059,-5.874247 9.453488,-1.824106 -1.542571,4.050141 -12.497995,13.990196 -12.497995,13.990196 z"
       id="path890" />
  </g>
</svg>
