<?xml version="1.0" encoding="UTF-8" standalone="no"?>
<!-- Created with Inkscape (http://www.inkscape.org/) -->

<svg
   width="210mm"
   height="297mm"
   viewBox="0 0 210 297"
   version="1.1"
   id="svg5"
   inkscape:version="1.1.2 (0a00cf5339, 2022-02-04)"
   sodipodi:docname="l.svg"
   xmlns:inkscape="http://www.inkscape.org/namespaces/inkscape"
   xmlns:sodipodi="http://sodipodi.sourceforge.net/DTD/sodipodi-0.dtd"
   xmlns="http://www.w3.org/2000/svg"
   xmlns:svg="http://www.w3.org/2000/svg">
  <sodipodi:namedview
     id="namedview7"
     pagecolor="#ffffff"
     bordercolor="#666666"
     borderopacity="1.0"
     inkscape:pageshadow="2"
     inkscape:pageopacity="0.0"
     inkscape:pagecheckerboard="0"
     inkscape:document-units="mm"
     showgrid="false"
     inkscape:zoom="0.58974467"
     inkscape:cx="397.62971"
     inkscape:cy="561.25984"
     inkscape:window-width="1600"
     inkscape:window-height="839"
     inkscape:window-x="0"
     inkscape:window-y="29"
     inkscape:window-maximized="1"
     inkscape:current-layer="layer1" />
  <defs
     id="defs2">
    <inkscape:path-effect
       effect="spiro"
       id="path-effect1489"
       is_visible="true"
       lpeversion="1" />
  </defs>
  <g
     inkscape:label="Calque 1"
     inkscape:groupmode="layer"
     id="layer1">
    <path
       style="fill:#ff00ff;stroke:#000000;stroke-width:0.264583px;stroke-linecap:butt;stroke-linejoin:miter;stroke-opacity:1"
       d="m 68.084958,92.154572 c 7.238605,5.307279 11.816664,14.073798 12.035575,23.046908 0.218911,8.97311 -3.926215,17.95244 -10.897406,23.60639 -1.917033,1.5548 -4.020457,2.86185 -6.015909,4.31464 -1.995452,1.45278 -3.909248,3.08023 -5.293455,5.12385 -1.384208,2.04362 -2.202873,4.55642 -1.836278,6.99733 0.183297,1.22045 0.66362,2.40259 1.430622,3.36944 0.767003,0.96686 1.824656,1.71099 3.011067,2.05089 0.990781,0.28385 2.050474,0.28419 3.062037,0.0868 1.011562,-0.19738 1.978147,-0.58762 2.888813,-1.07022 1.821332,-0.96521 3.423454,-2.29395 5.185931,-3.36285 2.952258,-1.79048 6.366156,-2.83319 9.818,-2.9133 3.451844,-0.0801 6.932392,0.81278 9.876437,2.61673 2.345041,1.43692 4.338398,3.42616 6.793782,4.66513 1.227692,0.61948 2.575846,1.04351 3.950936,1.05283 1.3751,0.009 2.77954,-0.42316 3.80121,-1.34358 0.58563,-0.52759 1.0339,-1.20337 1.3087,-1.94215 0.2748,-0.73878 0.37716,-1.53911 0.31468,-2.32486 -0.12498,-1.57151 -0.91404,-3.05648 -2.0586,-4.14057 -1.59618,-1.51185 -3.79884,-2.2386 -5.982202,-2.4963 -2.183364,-0.2577 -4.391011,-0.0908 -6.589246,-0.0554 -2.198235,0.0354 -4.44267,-0.0697 -6.502183,-0.83908 -1.029756,-0.38467 -2.003651,-0.93581 -2.819478,-1.67256 -0.815826,-0.73675 -1.47013,-1.66317 -1.828921,-2.70223 -0.321232,-0.93029 -0.401355,-1.93427 -0.306179,-2.91385 0.09518,-0.97957 0.362003,-1.93682 0.717193,-2.85468 0.71038,-1.83571 1.768333,-3.51432 2.612202,-5.29263 1.835147,-3.86726 2.634449,-8.18553 2.587627,-12.46587 -0.04682,-4.28033 -0.922513,-8.52689 -2.304269,-12.57833 -0.898042,-2.63315 -2.008253,-5.1893 -3.189444,-7.70817 -1.969253,-4.199404 -4.173827,-8.354351 -7.290421,-11.789434 -1.590353,-1.752873 -3.417853,-3.309428 -5.493849,-4.446102 -2.075997,-1.136673 -4.40882,-1.844025 -6.775424,-1.875204 -2.366604,-0.03118 -4.763773,0.636545 -6.677134,2.029684 -1.913362,1.393139 -3.308091,3.530637 -3.648175,5.872886 -0.309958,2.134763 0.275228,4.385265 1.585799,6.09865 1.310572,1.713385 3.329415,2.86728 5.470878,3.126947 2.141462,0.259666 4.377579,-0.378286 6.059668,-1.728791 1.682089,-1.350505 2.788185,-3.395927 2.997416,-5.542904"
       id="path1487"
       inkscape:path-effect="#path-effect1489"
       inkscape:original-d="m 68.084958,92.154572 c 0,0 -10.227325,30.307358 1.138169,46.653298 15.21244,21.87865 -7.201955,18.90794 -8.703953,21.85615 -1.491015,2.92665 8.937911,-5.15924 11.136781,-4.34627 2.198868,0.81296 11.616764,2.06453 19.694437,-0.29657 8.077674,-2.36111 9.697548,2.91651 14.545928,4.37438 4.84838,1.45786 -0.28988,-5.60479 -0.43522,-8.40758 -0.14534,-2.80279 -17.005805,-6.55156 -23.72203,-7.76561 -6.716226,-1.21405 2.290497,-7.97149 3.023216,-11.06116 0.732718,-3.08967 1.105797,-14.72346 0.283358,-25.0442 -0.822439,-10.320725 -1.6999,-2.44422 -3.189444,-7.70817 -1.489546,-5.263949 -5.286149,-10.553653 -7.290421,-11.789434 -2.004274,-1.235784 -20.625116,1.581264 -22.594582,1.581264 -1.867223,0 16.736431,1.954166 16.113761,1.953902"
       sodipodi:nodetypes="cssssssssssssc" />
  </g>
</svg>
