<?xml version="1.0" encoding="UTF-8" standalone="no"?>
<!-- Created with Inkscape (http://www.inkscape.org/) -->

<svg
   width="210mm"
   height="297mm"
   viewBox="0 0 210 297"
   version="1.1"
   id="svg1081"
   inkscape:version="1.1.2 (0a00cf5339, 2022-02-04)"
   sodipodi:docname="M.svg"
   xmlns:inkscape="http://www.inkscape.org/namespaces/inkscape"
   xmlns:sodipodi="http://sodipodi.sourceforge.net/DTD/sodipodi-0.dtd"
   xmlns="http://www.w3.org/2000/svg"
   xmlns:svg="http://www.w3.org/2000/svg">
  <sodipodi:namedview
     id="namedview1083"
     pagecolor="#ffffff"
     bordercolor="#666666"
     borderopacity="1.0"
     inkscape:pageshadow="2"
     inkscape:pageopacity="0.0"
     inkscape:pagecheckerboard="0"
     inkscape:document-units="mm"
     showgrid="false"
     inkscape:zoom="0.58974467"
     inkscape:cx="397.62971"
     inkscape:cy="561.25984"
     inkscape:window-width="1600"
     inkscape:window-height="839"
     inkscape:window-x="0"
     inkscape:window-y="29"
     inkscape:window-maximized="1"
     inkscape:current-layer="layer1" />
  <defs
     id="defs1078">
    <inkscape:path-effect
       effect="spiro"
       id="path-effect1247"
       is_visible="true"
       lpeversion="1" />
    <inkscape:path-effect
       effect="spiro"
       id="path-effect1177"
       is_visible="true"
       lpeversion="1" />
  </defs>
  <g
     inkscape:label="Calque 1"
     inkscape:groupmode="layer"
     id="layer1">
    <path
       style="fill:#ff7f2a;stroke:#000000;stroke-width:0.264583px;stroke-linecap:butt;stroke-linejoin:miter;stroke-opacity:1"
       d="M 126.86909,80.76654 95.519077,87.703643 80.235314,86.432884 c 3.673681,8.05237 6.176964,16.637586 7.406882,25.402506 0.587013,4.18331 0.884436,8.44348 0.307129,12.62813 -0.577308,4.18466 -2.073829,8.31226 -4.766391,11.56722 -2.692562,3.25496 -6.657929,5.56096 -10.877329,5.7642 -2.1097,0.10162 -4.251382,-0.32166 -6.132863,-1.28145 -1.881481,-0.95978 -3.493675,-2.46121 -4.524518,-4.30472 -1.387952,-2.48215 -1.674261,-5.46627 -1.286121,-8.2835 0.38814,-2.81723 1.408011,-5.50598 2.507904,-8.12851 1.099894,-2.62254 2.291612,-5.21961 3.052243,-7.95984 0.760631,-2.74024 1.07548,-5.6674 0.393529,-8.42827 -0.541043,-2.1904 -1.679162,-4.176748 -2.618498,-6.228148 -2.073594,-4.528486 -3.209003,-9.587665 -2.540237,-14.523222 0.334383,-2.467779 1.120293,-4.882667 2.383918,-7.028592 1.263625,-2.145925 3.010265,-4.017802 5.114709,-5.349364 2.679734,-1.69557 5.863692,-2.475701 9.030245,-2.645632 3.166553,-0.169931 6.335651,0.243519 9.46018,0.78505 6.249056,1.083062 12.67104,2.68184 18.840614,1.212115 4.23273,-1.008327 7.98294,-3.387421 11.82615,-5.427632 3.84321,-2.04021 8.06952,-3.808736 12.40356,-3.422914 3.13002,0.278639 6.12737,1.71155 8.38433,3.898047 2.25697,2.186498 3.77406,5.102198 4.37455,8.186686 0.6005,3.084487 0.29653,6.325344 -0.76599,9.28266 -1.06252,2.957316 -2.87144,5.629922 -5.14819,7.795813 -3.33278,3.170501 -7.60011,5.239076 -10.87315,8.47121 -1.63652,1.616063 -3.02025,3.545223 -3.69287,5.744643 -0.67262,2.19942 -0.57534,4.69016 0.57112,6.68403 0.69165,1.20288 1.73612,2.18509 2.93054,2.89125 1.19441,0.70617 2.53559,1.14381 3.9027,1.38112 2.7342,0.47463 5.53516,0.16085 8.29817,-0.0979 2.763,-0.25873 5.59149,-0.45644 8.27808,0.23881 1.34329,0.34763 2.63791,0.92155 3.73748,1.76786 1.09957,0.84631 1.99848,1.9728 2.48613,3.27183 0.51219,1.3644 0.55604,2.88593 0.21188,4.30208 -0.34416,1.41615 -1.06559,2.72772 -2.00776,3.83958 -1.88435,2.22371 -4.57886,3.61087 -7.32913,4.57609 -8.19934,2.8776 -17.64952,2.31153 -25.20635,-1.97847 -3.77842,-2.14499 -7.05777,-5.17845 -9.43275,-8.8167 -2.37499,-3.63826 -3.83558,-7.87825 -4.13678,-12.21262 -0.43397,-6.24499 1.57382,-12.574607 5.27039,-17.62669 3.69658,-5.052083 9.01946,-8.835333 14.90042,-10.980685 0.62711,-0.228766 1.26072,-0.439692 1.89982,-0.632435 z"
       id="path1175"
       inkscape:path-effect="#path-effect1177"
       inkscape:original-d="M 126.86909,80.76654 95.519077,87.703643 80.235314,86.432884 c 0,0 -19.474461,18.963796 7.406882,25.402506 19.946394,4.77762 -23.061148,26.63286 -25.993972,24.37338 -2.932827,-2.25948 3.072035,-28.75739 4.667555,-32.80012 25.914452,-65.662019 -7.14459,7.79378 -2.618498,-6.228148 4.526092,-14.021935 4.381451,-16.848398 4.95839,-26.901178 0.576939,-10.05278 24.772555,1.316211 37.331039,-0.648467 12.55849,-1.964678 16.03672,-5.572948 24.22971,-8.850546 8.19299,-3.277598 4.79516,17.366993 6.8447,29.163206 2.04954,11.796213 -65.570562,3.667643 -13.9949,20.899883 11.9833,4.0038 15.9652,11.18207 29.6331,9.45299 2.84168,-0.35949 -9.11711,11.94324 -9.12501,12.71775 -0.008,0.77452 -30.88425,-19.74833 -38.77588,-23.00779 -7.891616,-3.25946 23.02974,-14.462831 20.17081,-28.607375 -2.85894,-14.144543 1.26681,-0.421359 1.89982,-0.632435 z"
       sodipodi:nodetypes="cccsssscssssscsssc" />
  </g>
</svg>
