<?xml version="1.0" encoding="UTF-8" standalone="no"?>
<!-- Created with Inkscape (http://www.inkscape.org/) -->

<svg
   width="210mm"
   height="297mm"
   viewBox="0 0 210 297"
   version="1.1"
   id="svg7678"
   inkscape:version="1.1.2 (0a00cf5339, 2022-02-04)"
   sodipodi:docname="M2.svg"
   xmlns:inkscape="http://www.inkscape.org/namespaces/inkscape"
   xmlns:sodipodi="http://sodipodi.sourceforge.net/DTD/sodipodi-0.dtd"
   xmlns="http://www.w3.org/2000/svg"
   xmlns:svg="http://www.w3.org/2000/svg">
  <sodipodi:namedview
     id="namedview7680"
     pagecolor="#ffffff"
     bordercolor="#666666"
     borderopacity="1.0"
     inkscape:pageshadow="2"
     inkscape:pageopacity="0.0"
     inkscape:pagecheckerboard="0"
     inkscape:document-units="mm"
     showgrid="false"
     inkscape:zoom="0.58974467"
     inkscape:cx="397.62971"
     inkscape:cy="561.25984"
     inkscape:window-width="1600"
     inkscape:window-height="839"
     inkscape:window-x="0"
     inkscape:window-y="29"
     inkscape:window-maximized="1"
     inkscape:current-layer="layer1" />
  <defs
     id="defs7675">
    <inkscape:path-effect
       effect="spiro"
       id="path-effect1177"
       is_visible="true"
       lpeversion="1" />
  </defs>
  <g
     inkscape:label="Calque 1"
     inkscape:groupmode="layer"
     id="layer1">
    <path
       style="fill:#ffdd55;stroke:#000000;stroke-width:0.264583px;stroke-linecap:butt;stroke-linejoin:miter;stroke-opacity:1"
       d="M 104.99357,82.685528 73.643559,89.62263 58.359796,88.351872 c 3.673681,8.05237 6.176964,16.637588 7.406882,25.402508 0.587013,4.18331 0.884436,8.44348 0.307128,12.62813 -0.577307,4.18466 -2.073828,8.31226 -4.76639,11.56722 -2.692562,3.25496 -6.657929,5.56095 -10.877329,5.76419 -2.1097,0.10162 -4.251382,-0.32165 -6.132863,-1.28144 -1.881481,-0.95978 -3.493675,-2.46121 -4.524518,-4.30472 -1.387952,-2.48215 -1.674261,-5.46627 -1.286122,-8.2835 0.38814,-2.81723 1.408011,-5.50598 2.507905,-8.12851 1.099893,-2.62254 2.291611,-5.21961 3.052242,-7.95984 0.760631,-2.74024 1.075481,-5.6674 0.39353,-8.42827 -0.541043,-2.1904 -1.679162,-4.17675 -2.618498,-6.22815 -2.073593,-4.528486 -3.209003,-9.587665 -2.540236,-14.523222 0.334383,-2.467779 1.120292,-4.882666 2.383917,-7.028592 1.263625,-2.145925 3.010265,-4.017802 5.114709,-5.349364 2.679734,-1.69557 5.863692,-2.475701 9.030245,-2.645632 3.166553,-0.169931 6.335651,0.243519 9.46018,0.78505 6.249056,1.083062 12.67104,2.68184 18.840614,1.212115 4.23273,-1.008327 7.982939,-3.387421 11.82615,-5.427632 3.84321,-2.04021 8.069518,-3.808736 12.403558,-3.422914 3.13002,0.278639 6.12737,1.71155 8.38433,3.898047 2.25697,2.186498 3.77406,5.102198 4.37455,8.186686 0.6005,3.084487 0.29653,6.325344 -0.76599,9.28266 -1.06252,2.957316 -2.87144,5.629922 -5.14819,7.795813 -3.33278,3.170502 -7.60011,5.239077 -10.87315,8.471215 -1.63652,1.61606 -3.02025,3.54522 -3.69287,5.74464 -0.672625,2.19942 -0.57534,4.69016 0.57112,6.68403 0.69165,1.20288 1.73612,2.18509 2.93054,2.89125 1.19441,0.70617 2.5356,1.14381 3.9027,1.38112 2.7342,0.47463 5.53516,0.16085 8.29817,-0.0979 2.763,-0.25873 5.59149,-0.45644 8.27808,0.23881 1.34329,0.34763 2.63791,0.92155 3.73748,1.76786 1.09957,0.84631 1.99848,1.9728 2.48613,3.27183 0.51219,1.3644 0.55604,2.88593 0.21188,4.30208 -0.34416,1.41615 -1.06559,2.72772 -2.00776,3.83958 -1.88435,2.22371 -4.57886,3.61087 -7.32913,4.57609 -8.19934,2.8776 -17.64952,2.31153 -25.206351,-1.97847 -3.778416,-2.14499 -7.057766,-5.17845 -9.432749,-8.81671 -2.374983,-3.63825 -3.835577,-7.87825 -4.136778,-12.21261 -0.433972,-6.24499 1.573818,-12.574607 5.270391,-17.626691 3.696574,-5.052083 9.019459,-8.835334 14.900417,-10.980686 0.62711,-0.228766 1.26072,-0.439692 1.89982,-0.632435 z"
       id="path1175"
       inkscape:path-effect="#path-effect1177"
       inkscape:original-d="M 104.99357,82.685528 73.643559,89.62263 58.359796,88.351872 c 0,0 -19.474461,18.963798 7.406882,25.402508 19.946394,4.77762 -23.061148,26.63286 -25.993972,24.37338 -2.932827,-2.25948 3.072035,-28.75739 4.667555,-32.80012 25.914452,-65.662021 -7.14459,7.79378 -2.618498,-6.22815 4.526092,-14.021935 4.381451,-16.848398 4.95839,-26.901178 0.576939,-10.05278 24.772555,1.316211 37.331039,-0.648467 12.55849,-1.964678 16.036718,-5.572948 24.229708,-8.850546 8.19299,-3.277598 4.79516,17.366993 6.8447,29.163206 2.04954,11.796215 -65.57056,3.667643 -13.9949,20.899885 11.9833,4.0038 15.9652,11.18207 29.6331,9.45299 2.84168,-0.35949 -9.11711,11.94324 -9.12501,12.71775 -0.008,0.77452 -30.884248,-19.74833 -38.775878,-23.00779 -7.891616,-3.25946 23.029738,-14.462833 20.170808,-28.607377 -2.85894,-14.144543 1.26681,-0.421359 1.89982,-0.632435 z"
       sodipodi:nodetypes="cccsssscssssscsssc" />
  </g>
</svg>
