<?xml version="1.0" encoding="UTF-8" standalone="no"?>
<!-- Created with Inkscape (http://www.inkscape.org/) -->

<svg
   width="210mm"
   height="297mm"
   viewBox="0 0 210 297"
   version="1.1"
   id="svg1333"
   inkscape:version="1.1.2 (0a00cf5339, 2022-02-04)"
   sodipodi:docname="n.svg"
   xmlns:inkscape="http://www.inkscape.org/namespaces/inkscape"
   xmlns:sodipodi="http://sodipodi.sourceforge.net/DTD/sodipodi-0.dtd"
   xmlns="http://www.w3.org/2000/svg"
   xmlns:svg="http://www.w3.org/2000/svg">
  <sodipodi:namedview
     id="namedview1335"
     pagecolor="#ffffff"
     bordercolor="#cccccc"
     borderopacity="1"
     inkscape:pageshadow="0"
     inkscape:pageopacity="1"
     inkscape:pagecheckerboard="0"
     inkscape:document-units="mm"
     showgrid="false"
     inkscape:zoom="0.57727273"
     inkscape:cx="396.69291"
     inkscape:cy="561.25984"
     inkscape:window-width="1600"
     inkscape:window-height="839"
     inkscape:window-x="0"
     inkscape:window-y="29"
     inkscape:window-maximized="1"
     inkscape:current-layer="layer1" />
  <defs
     id="defs1330" />
  <g
     inkscape:label="Calque 1"
     inkscape:groupmode="layer"
     id="layer1">
    <path
       style="fill:#cc0000;stroke:#000000;stroke-width:0.264583px;stroke-linecap:butt;stroke-linejoin:miter;stroke-opacity:1"
       d="m 119.68167,119.89378 2.0481,0.0231 c 0,0 -9.54838,-8.93477 -10.34643,59.33325 -0.79806,68.26801 0,0 0,0 l -16.276378,-5.69574 c 0,0 -3.374696,-20.23799 -5.623059,-40.8552 -2.248361,-20.61721 3.242407,-15.12367 -9.148903,-4.05047 -12.391308,11.07319 0,0 0,0 l -5.534729,45.70409 -13.002466,-4.50616 c 0,0 -6.676173,-1.90936 5.60328,-65.70914 29.0183,0.11238 23.542246,-18.883789 28.603635,0.11238 5.06139,18.99618 10.29429,17.59522 10.29429,17.59522 0,0 -20.401458,13.57198 0,0 20.40145,-13.57199 16.00099,-21.05809 16.36967,-19.60291 0.36867,1.45517 -2.98701,17.65158 -2.98701,17.65158 z"
       id="path1427" />
  </g>
</svg>
